<svg width="256" height="256" viewBox="0 0 256 256" fill="none" xmlns="http://www.w3.org/2000/svg">
<rect width="256" height="256" fill="white"/>
<path fill-rule="evenodd" clip-rule="evenodd" d="M256 0H0V256H256V0ZM55.8436 158.748C49.5881 153.675 49.6644 144.065 55.9996 139.093L56.7177 138.5L55.8436 137.791C49.5881 132.718 49.6644 123.107 55.9996 118.135L57.7284 116.698L56.4666 115.675C50.4376 110.786 50.511 101.523 56.6169 96.7309L121.809 45.567C126.213 42.1104 132.404 42.1601 136.753 45.6869L200.212 97.1504C206.241 102.04 206.168 111.303 200.062 116.095L198.632 117.217L200.156 118.56C206.411 123.633 206.335 133.244 200 138.215L199.329 138.742L200.156 139.517C206.411 144.59 206.335 154.201 200 159.172L134.808 210.337C130.239 213.923 123.815 213.871 119.303 210.212L55.8436 158.748ZM85.9387 102.495L129.459 68.362C131.368 66.8652 134.122 67.2077 135.61 69.127C137.098 71.0463 136.758 73.8157 134.849 75.3126L91.3288 109.445C89.4202 110.942 86.6664 110.599 85.178 108.68C83.6895 106.761 84.0301 103.991 85.9387 102.495ZM146.992 85.0105L103.471 119.143C101.562 120.64 101.222 123.409 102.71 125.329C104.199 127.248 106.953 127.59 108.861 126.094L152.382 91.961C154.29 90.4641 154.631 87.6948 153.142 85.7755C151.654 83.8561 148.9 83.5136 146.992 85.0105ZM121.893 169.978L65.8958 125.153C64.9544 124.4 63.7541 124.052 62.5585 124.189C61.3629 124.325 60.2703 124.934 59.5209 125.881C58.7715 126.827 58.4268 128.035 58.5626 129.237C58.6984 130.439 59.3036 131.538 60.2451 132.292L120.522 180.538C124.686 183.87 130.594 183.842 134.725 180.469L194.54 131.644C195.474 130.881 196.07 129.777 196.195 128.573C196.319 127.37 195.963 126.166 195.204 125.226C194.446 124.287 193.348 123.689 192.151 123.564C190.954 123.439 189.757 123.797 188.823 124.559L133.256 169.923C129.95 172.622 125.223 172.644 121.893 169.978ZM121.888 190.657L65.8914 145.833C64.95 145.079 63.7497 144.731 62.5541 144.868C61.3585 145.004 60.2659 145.613 59.5165 146.56C58.7671 147.507 58.4224 148.714 58.5582 149.916C58.694 151.119 59.2992 152.217 60.2407 152.971L120.518 201.217C124.681 204.549 130.589 204.521 134.721 201.149L194.536 152.323C195.47 151.56 196.066 150.456 196.19 149.253C196.314 148.049 195.958 146.845 195.2 145.906C194.442 144.966 193.343 144.368 192.146 144.243C190.95 144.118 189.752 144.476 188.818 145.239L133.251 190.602C129.946 193.301 125.219 193.324 121.888 190.657Z" fill="#24AFFE"/>
</svg>
