<svg width="1657" height="443" viewBox="0 0 1657 443" fill="none" xmlns="http://www.w3.org/2000/svg">
<rect width="1657" height="443" fill="#24AFFE"/>
<path fill-rule="evenodd" clip-rule="evenodd" d="M519.937 228.444C516.06 231.487 516.014 237.368 519.842 240.473L558.678 271.968C561.439 274.207 565.37 274.239 568.167 272.044L608.063 240.732C611.94 237.69 611.986 231.808 608.158 228.704L607.652 228.229L608.063 227.907C611.94 224.865 611.986 218.983 608.158 215.878L607.225 215.056L608.1 214.37C611.837 211.437 611.882 205.768 608.192 202.776L569.357 171.282C566.696 169.123 562.906 169.093 560.211 171.208L520.315 202.519C516.579 205.452 516.534 211.121 520.223 214.113L520.995 214.739L519.937 215.619C516.06 218.661 516.014 224.543 519.842 227.647L520.377 228.081L519.937 228.444ZM564.893 185.158L538.26 206.047C537.092 206.963 536.883 208.658 537.794 209.832C538.705 211.007 540.39 211.216 541.558 210.3L568.192 189.412C569.36 188.496 569.568 186.801 568.657 185.626C567.746 184.452 566.061 184.242 564.893 185.158ZM548.989 216.235L575.623 195.347C576.791 194.431 578.476 194.64 579.387 195.815C580.298 196.99 580.089 198.684 578.921 199.6L552.288 220.489C551.12 221.405 549.434 221.195 548.523 220.021C547.613 218.846 547.821 217.151 548.989 216.235ZM525.994 219.914L560.263 247.345C562.301 248.977 565.194 248.963 567.216 247.312L601.222 219.55C601.794 219.083 602.527 218.864 603.259 218.941C603.992 219.017 604.664 219.383 605.128 219.958C605.592 220.533 605.81 221.27 605.734 222.006C605.658 222.743 605.293 223.419 604.721 223.885L568.116 253.766C565.587 255.829 561.972 255.847 559.424 253.808L522.536 224.282C521.959 223.821 521.589 223.148 521.506 222.413C521.423 221.677 521.634 220.938 522.092 220.358C522.551 219.779 523.22 219.407 523.951 219.323C524.683 219.239 525.418 219.452 525.994 219.914ZM525.991 232.569L560.26 260.001C562.298 261.632 565.191 261.618 567.214 259.967L601.22 232.205C601.791 231.739 602.524 231.519 603.256 231.596C603.989 231.672 604.661 232.038 605.125 232.613C605.589 233.188 605.807 233.925 605.731 234.662C605.655 235.398 605.29 236.074 604.719 236.541L568.113 266.421C565.585 268.485 561.969 268.502 559.421 266.463L522.533 236.937C521.957 236.476 521.586 235.804 521.503 235.068C521.42 234.332 521.631 233.593 522.09 233.014C522.548 232.434 523.217 232.062 523.949 231.978C524.68 231.895 525.415 232.108 525.991 232.569Z" fill="white"/>
<path d="M664.184 214.431C667.352 207.999 673.88 203.871 681.944 203.871V213.855C671.288 213.855 664.184 220.191 664.184 229.599V254.655H652.472V205.023H664.184V214.431ZM708.748 246.399C713.836 246.399 719.404 244.287 722.572 241.215L729.292 248.127C724.972 252.735 716.332 255.807 709.132 255.807C694.828 255.807 683.116 244.959 683.116 229.695C683.116 214.719 694.252 203.871 708.46 203.871C723.82 203.871 732.844 215.199 732.844 233.247H694.444C695.692 241.023 701.068 246.399 708.748 246.399ZM708.652 213.279C701.548 213.279 696.076 218.079 694.54 225.471H721.516C720.46 218.463 716.044 213.279 708.652 213.279ZM754.256 255.807C746.576 255.807 738.416 253.119 732.464 248.415L737.456 240.735C742.736 244.575 748.976 246.783 754.448 246.783C759.728 246.783 762.896 244.575 762.896 241.119C762.896 237.183 758.288 235.839 752.336 234.303C741.584 231.423 734.768 228.447 734.768 219.423C734.768 210.207 742.352 203.871 753.488 203.871C760.208 203.871 767.024 206.271 772.4 209.823L767.888 217.695C763.184 214.719 758 212.799 753.488 212.799C749.072 212.799 745.616 214.815 745.616 218.271C745.616 221.535 748.688 222.399 756.272 224.703C764.624 227.007 773.744 229.791 773.744 240.063C773.744 249.663 765.776 255.807 754.256 255.807ZM812.952 205.023H824.76V254.655H812.952V248.127C809.976 252.735 804.216 255.807 797.592 255.807C786.744 255.807 779.16 247.935 779.16 236.607V205.023H790.488V234.303C790.488 241.119 794.808 245.823 800.952 245.823C807.673 245.823 812.952 241.119 812.952 235.071V205.023ZM891.106 203.871C901.474 203.871 909.25 211.839 909.25 223.071V254.655H897.826V224.991C897.826 218.463 893.89 213.855 888.13 213.855C881.794 213.855 877.282 218.175 877.282 224.223V254.655H865.954V224.991C865.954 218.463 861.922 213.855 856.258 213.855C849.922 213.855 845.41 218.175 845.41 224.223V254.655H833.698V205.023H845.41V211.743C847.906 206.943 852.898 203.871 859.138 203.871C865.762 203.871 871.234 207.039 874.402 212.319C877.762 207.135 883.714 203.871 891.106 203.871ZM940.318 246.399C945.406 246.399 950.974 244.287 954.142 241.215L960.862 248.127C956.542 252.735 947.902 255.807 940.702 255.807C926.398 255.807 914.686 244.959 914.686 229.695C914.686 214.719 925.822 203.871 940.03 203.871C955.39 203.871 964.414 215.199 964.414 233.247H926.014C927.262 241.023 932.638 246.399 940.318 246.399ZM940.222 213.279C933.118 213.279 927.646 218.079 926.11 225.471H953.086C952.03 218.463 947.614 213.279 940.222 213.279ZM985.826 255.807C978.146 255.807 969.986 253.119 964.034 248.415L969.026 240.735C974.306 244.575 980.546 246.783 986.018 246.783C991.298 246.783 994.466 244.575 994.466 241.119C994.466 237.183 989.858 235.839 983.906 234.303C973.154 231.423 966.338 228.447 966.338 219.423C966.338 210.207 973.922 203.871 985.058 203.871C991.778 203.871 998.594 206.271 1003.97 209.823L999.458 217.695C994.754 214.719 989.57 212.799 985.058 212.799C980.642 212.799 977.186 214.815 977.186 218.271C977.186 221.535 980.258 222.399 987.842 224.703C996.194 227.007 1005.31 229.791 1005.31 240.063C1005.31 249.663 997.346 255.807 985.826 255.807ZM1018.89 255.807C1014.47 255.807 1011.11 252.351 1011.11 248.127C1011.11 244.191 1014.47 240.735 1018.89 240.735C1022.92 240.735 1026.28 244.191 1026.28 248.127C1026.28 252.351 1022.92 255.807 1018.89 255.807ZM1050.54 200.895V205.023H1061.77V214.719H1050.54V254.655H1039.21V214.719H1032.01V205.023H1039.21V199.839C1039.21 191.487 1044.97 185.535 1053.13 185.535C1056.97 185.535 1061.01 187.071 1063.79 189.471L1060.43 196.959C1059.37 195.903 1057.55 195.135 1055.53 195.135C1052.75 195.135 1050.54 197.535 1050.54 200.895ZM1079.45 271.935C1075.71 271.935 1071.49 270.975 1068.51 269.343L1071.01 260.895C1073.21 262.047 1075.52 262.719 1077.34 262.719C1080.13 262.719 1082.33 261.663 1083.97 258.975L1085.79 255.039L1064.77 205.023H1077.15L1091.65 242.079L1105.37 205.023H1117.47L1096.35 258.111C1092.7 267.519 1086.85 271.839 1079.45 271.935ZM1128.69 197.535C1124.95 197.535 1121.97 194.367 1121.97 190.815C1121.97 187.263 1124.95 184.191 1128.69 184.191C1132.34 184.191 1135.22 187.263 1135.22 190.815C1135.22 194.367 1132.34 197.535 1128.69 197.535ZM1122.83 254.655V205.023H1134.55V254.655H1122.83Z" fill="white"/>
</svg>
